<?xml version="1.0" standalone="no"?>
<!DOCTYPE svg PUBLIC "-//W3C//DTD SVG 20010904//EN"
 "http://www.w3.org/TR/2001/REC-SVG-20010904/DTD/svg10.dtd">
<svg version="1.0" xmlns="http://www.w3.org/2000/svg"
 width="477.000000pt" height="677.000000pt" viewBox="0 0 477.000000 677.000000"
 preserveAspectRatio="xMidYMid meet">

<g transform="translate(0.000000,677.000000) scale(0.100000,-0.100000)"
fill="#000000" stroke="none">
<path d="M2220 6618 c-115 -61 -78 -278 47 -278 64 0 121 50 111 96 -5 18 -5
18 -12 -1 -18 -47 -30 -63 -53 -74 -36 -16 -67 -13 -96 10 -27 20 -56 93 -43
106 4 4 52 9 106 11 l100 4 0 34 c0 72 -94 126 -160 92z m116 -33 c17 -17 24
-34 22 -53 l-3 -27 -92 -3 c-103 -3 -108 1 -78 58 19 37 41 49 88 50 27 0 45
-7 63 -25z"/>
<path d="M2525 6610 c-28 -14 -35 -15 -35 -4 0 10 -13 14 -47 12 -36 -1 -40
-2 -16 -5 19 -3 34 -11 37 -21 2 -9 1 -64 -2 -122 l-7 -105 -30 -6 c-25 -5
-21 -7 20 -8 28 -1 60 -4 73 -7 12 -4 22 -2 22 4 0 6 -12 12 -27 14 l-28 3 1
92 c1 102 15 138 60 149 37 9 74 -10 74 -40 0 -16 -5 -23 -16 -22 -22 1 -30
-22 -10 -30 40 -15 64 58 29 88 -29 25 -60 27 -98 8z"/>
<path d="M2055 6600 c-39 -7 -39 -7 -7 -9 18 0 32 -6 32 -13 0 -7 -12 -64 -26
-126 l-26 -113 -59 106 c-33 58 -59 109 -59 114 0 5 14 11 32 15 17 3 29 9 26
12 -7 6 -138 -17 -138 -26 0 -3 12 -6 26 -5 22 0 34 -15 94 -120 38 -66 73
-121 79 -123 11 -4 10 -5 46 143 32 129 38 142 67 148 14 3 9 4 -12 4 -19 0
-53 -3 -75 -7z"/>
<path d="M2692 6572 c-53 -49 -65 -150 -27 -209 9 -14 33 -32 53 -40 32 -13
42 -14 76 -2 45 16 86 63 69 80 -7 7 -14 1 -23 -21 -15 -37 -37 -50 -82 -50
-46 0 -75 23 -88 71 -18 67 -10 77 58 68 160 -23 149 -23 155 0 8 33 -11 88
-40 111 -40 31 -113 28 -151 -8z m128 3 c30 -15 51 -63 43 -96 -4 -13 -13 -14
-81 -3 -42 7 -85 13 -95 13 -47 2 31 101 79 101 14 0 38 -7 54 -15z"/>
<path d="M1471 6561 c-18 -11 -5 -31 20 -31 12 0 19 7 19 20 0 21 -16 26 -39
11z"/>
<path d="M2948 6554 c17 -8 32 -15 32 -17 0 -6 -41 -193 -46 -209 -4 -12 -16
-18 -37 -19 l-32 -1 35 -10 c86 -23 100 -26 100 -17 0 5 -9 9 -19 9 -30 0 -32
13 -16 87 27 119 50 153 103 153 36 0 81 -28 88 -55 7 -27 -39 -195 -57 -205
-5 -4 -22 -5 -37 -3 -23 3 -24 2 -7 -6 38 -18 239 -80 244 -75 3 3 -5 7 -17
11 -30 7 -28 24 18 148 22 59 40 109 40 110 0 2 -20 10 -45 18 -25 9 -45 12
-45 7 0 -4 14 -13 30 -19 17 -5 30 -14 30 -20 0 -16 -70 -205 -79 -214 -13
-13 -96 18 -99 37 -2 9 6 44 17 79 35 108 36 130 8 163 -21 24 -32 29 -74 29
-26 0 -56 -4 -65 -9 -14 -6 -18 -4 -18 12 0 14 -9 21 -31 26 -49 9 -57 6 -21
-10z"/>
<path d="M1713 6549 c-17 -5 -43 -24 -58 -41 -24 -29 -27 -38 -23 -93 4 -72
33 -120 84 -141 68 -29 154 23 154 92 0 21 -4 33 -10 29 -5 -3 -10 -20 -10
-36 0 -42 -39 -79 -84 -79 -41 0 -89 37 -104 80 -12 33 -17 31 127 64 34 8 65
17 68 19 10 10 -10 57 -35 80 -33 30 -66 38 -109 26z m78 -19 c19 -11 54 -68
46 -76 -5 -5 -162 -44 -178 -44 -5 0 -9 16 -9 36 0 69 80 116 141 84z"/>
<path d="M1291 6534 c-39 -17 -37 -29 2 -15 30 12 32 9 66 -78 12 -28 17 -51
11 -51 -5 0 -12 5 -15 10 -3 6 -20 10 -36 10 -126 0 -157 -163 -49 -254 57
-47 145 -30 174 35 4 11 7 11 12 2 8 -19 25 -16 101 13 111 43 112 44 79 41
-28 -2 -30 0 -69 118 -22 66 -41 121 -42 123 -3 4 -69 -20 -79 -29 -6 -5 7 -8
29 -6 l40 2 27 -77 c15 -42 30 -92 33 -111 6 -32 5 -34 -37 -50 -24 -10 -48
-17 -54 -17 -6 0 -40 77 -76 172 -36 95 -69 173 -74 174 -5 1 -24 -4 -43 -12z
m68 -150 c30 -21 71 -114 71 -160 0 -46 -37 -84 -81 -84 -64 0 -141 114 -123
185 8 32 58 75 88 75 12 0 32 -7 45 -16z"/>
<path d="M1350 6263 c-23 -9 -60 -45 -60 -59 0 -17 32 -34 63 -34 27 0 57 28
57 52 0 43 -20 56 -60 41z"/>
<path d="M3324 6535 c-4 -10 -1 -21 7 -26 20 -12 34 -5 34 17 0 24 -33 31 -41
9z"/>
<path d="M3435 6365 c-14 -13 -25 -31 -25 -39 0 -9 -13 -22 -29 -30 -36 -19
-45 -43 -28 -70 13 -19 12 -22 -17 -31 -18 -6 -36 -22 -45 -40 -13 -26 -12
-33 5 -64 24 -45 102 -86 162 -86 36 0 48 5 66 28 16 20 28 26 42 21 23 -9
123 -66 182 -105 23 -16 42 -24 42 -18 0 5 -7 12 -15 15 -25 10 -17 37 30 111
53 82 87 103 135 83 44 -18 73 -58 65 -90 -7 -27 -110 -170 -123 -170 -4 0
-18 7 -30 16 -12 8 -22 11 -22 5 0 -5 15 -19 33 -30 18 -11 41 -29 50 -39 15
-17 16 -22 3 -46 -19 -38 -6 -80 41 -128 41 -42 89 -68 125 -68 37 0 68 35 68
76 0 29 -11 46 -65 104 -66 71 -74 87 -53 108 20 20 36 14 43 -18 3 -16 22
-43 41 -60 59 -51 130 -35 160 37 16 38 39 51 62 36 25 -15 26 -32 3 -26 -15
4 -21 1 -21 -11 0 -24 29 -31 48 -12 15 15 14 18 -4 43 -23 30 -57 41 -78 24
-10 -8 -16 -5 -24 14 -13 28 -67 65 -95 65 -29 0 -75 -28 -82 -50 -5 -15 -15
-20 -40 -20 -37 0 -52 -23 -40 -60 5 -17 2 -20 -22 -20 -31 0 -73 24 -73 42 0
6 22 41 50 77 63 86 74 115 58 149 -19 39 -77 74 -115 70 -28 -3 -32 -1 -27
17 3 15 -3 25 -27 38 -17 10 -34 16 -36 13 -3 -2 5 -9 16 -16 12 -6 21 -18 21
-27 0 -25 -110 -193 -126 -193 -8 0 -32 11 -54 25 l-40 25 16 33 c9 17 36 67
60 109 24 43 44 80 44 82 0 3 -13 12 -29 21 -23 11 -28 20 -24 36 4 15 0 27
-12 35 -25 19 -74 18 -81 -1 -5 -12 -12 -10 -36 10 -40 34 -100 34 -133 0z
m126 -14 c31 -32 35 -50 17 -84 -26 -50 -77 -61 -121 -27 -35 27 -41 53 -23
89 31 58 82 67 127 22z m103 3 c20 -8 21 -24 1 -24 -28 0 -15 -26 20 -43 19
-9 35 -22 35 -28 0 -20 -105 -199 -117 -199 -27 0 -59 23 -73 52 -10 22 -37
44 -87 72 -75 41 -91 59 -72 82 17 20 27 17 55 -15 31 -37 82 -55 116 -42 33
13 68 58 68 88 0 28 16 63 30 63 4 0 15 -3 24 -6z m-181 -211 c32 -26 37 -35
37 -64 0 -42 -31 -63 -86 -56 -50 5 -85 27 -118 71 -19 25 -19 29 -6 54 9 14
26 29 40 32 31 8 105 -12 133 -37z m748 -222 c36 -36 37 -73 4 -106 -36 -37
-86 -34 -119 6 -33 39 -33 69 0 103 36 35 77 34 115 -3z m-144 -173 c57 -55
61 -121 8 -134 -38 -9 -71 3 -114 41 -49 45 -67 85 -51 115 26 49 93 40 157
-22z"/>
<path d="M3754 6345 c-7 -18 3 -35 21 -35 18 0 26 25 12 39 -15 15 -27 14 -33
-4z"/>
<path d="M1052 6288 c-35 -22 -38 -37 -4 -19 12 6 26 11 32 11 14 0 90 -157
90 -188 0 -30 -60 -92 -90 -92 -38 0 -57 18 -111 105 -29 47 -56 88 -60 90 -9
6 -69 -27 -69 -37 0 -11 18 -10 25 2 16 26 43 5 90 -71 58 -93 90 -116 138
-99 41 14 87 58 87 84 1 20 1 20 14 3 14 -18 16 -18 53 3 34 19 31 21 -17 9
-10 -3 -32 29 -71 106 -31 60 -61 110 -65 111 -5 1 -24 -7 -42 -18z"/>
<path d="M1487 6235 c3 -8 9 -12 14 -9 12 7 11 11 -5 17 -10 4 -13 1 -9 -8z"/>
<path d="M1533 6172 c-24 -9 -43 -19 -43 -22 0 -3 10 -21 22 -40 l21 -35 9 30
c5 17 12 36 14 44 2 8 6 12 9 10 2 -3 -2 -27 -9 -54 -9 -36 -9 -58 -2 -77 11
-30 26 -37 26 -13 0 8 5 15 11 15 7 0 6 -8 -3 -22 -11 -17 -12 -32 -6 -58 13
-50 25 -58 39 -27 7 15 16 27 20 27 5 0 -1 -16 -12 -35 -19 -32 -20 -37 -6
-85 20 -67 5 -64 -16 4 -14 45 -22 55 -50 64 -29 11 -29 11 -4 8 18 -2 27 1
27 10 0 21 -37 54 -59 54 -11 0 -23 4 -26 10 -4 6 6 7 25 4 36 -8 37 -1 10 60
-14 35 -25 46 -42 47 -17 1 -18 3 -6 6 16 4 16 6 2 29 -16 23 -44 33 -44 15 0
-17 -72 -43 -106 -39 -30 4 -34 1 -34 -20 0 -39 60 -143 115 -198 53 -54 143
-115 214 -147 57 -25 85 -13 114 51 33 72 30 170 -6 244 -28 56 -126 159 -150
157 -7 -1 -31 -9 -54 -17z"/>
<path d="M2596 6139 c-58 -46 -73 -216 -27 -306 12 -24 27 -43 34 -43 15 0 88
108 117 172 35 77 22 156 -31 184 -38 19 -62 18 -93 -7z m84 -64 c0 -2 -9 -9
-20 -15 -12 -6 -20 -7 -20 -1 0 5 8 12 18 14 9 3 18 5 20 6 1 0 2 -1 2 -4z
m-39 -76 c-5 -13 -10 -19 -10 -12 -1 15 10 45 15 40 3 -2 0 -15 -5 -28z m-9
-25 c13 -8 16 -14 9 -18 -6 -4 -11 -18 -11 -31 0 -13 -5 -27 -11 -31 -8 -4 -9
3 -4 26 6 27 2 37 -22 62 -25 28 -26 29 -4 17 13 -8 32 -19 43 -25z"/>
<path d="M680 6135 c0 -3 7 -17 16 -31 16 -24 16 -26 -6 -49 -13 -14 -19 -25
-13 -25 6 0 16 7 23 15 7 8 16 15 20 15 5 0 38 -40 74 -90 71 -98 98 -114 141
-86 31 21 33 66 4 107 -33 47 -41 33 -12 -20 24 -42 26 -51 14 -65 -8 -10 -25
-16 -40 -14 -24 3 -54 36 -128 142 l-28 39 35 28 c18 16 31 31 28 34 -3 3 -20
-6 -38 -22 l-32 -27 -20 27 c-18 24 -38 36 -38 22z"/>
<path d="M2980 6092 c-57 -37 -132 -117 -159 -170 -63 -124 -68 -357 -11 -477
18 -38 18 -44 4 -90 -8 -28 -19 -102 -24 -165 -10 -130 -35 -212 -78 -252 -15
-15 -66 -44 -114 -66 -103 -48 -174 -109 -210 -184 -38 -76 -42 -127 -22 -253
25 -162 24 -287 -5 -352 -12 -28 -33 -61 -46 -73 l-24 -23 -40 32 c-75 59
-173 211 -202 311 -17 61 -23 66 -44 34 -14 -22 -16 -40 -12 -88 3 -34 9 -70
13 -81 14 -39 -46 26 -106 116 -77 114 -111 146 -195 185 -90 41 -161 59 -315
79 -69 9 -136 19 -150 22 -61 14 -140 79 -125 103 3 6 33 10 66 10 l59 0 0 83
c0 108 19 310 30 321 5 5 10 -55 12 -142 3 -137 1 -151 -15 -156 -14 -3 -17
-15 -17 -61 l0 -56 230 3 c144 2 233 7 240 14 14 14 15 403 0 418 -7 7 -101
14 -242 19 -204 7 -233 6 -247 -8 -13 -12 -17 -49 -22 -168 -4 -84 -7 -153 -8
-154 0 -2 -28 -3 -61 -3 -48 0 -61 -4 -70 -19 -17 -32 -11 -69 16 -111 46 -69
19 -55 -36 18 -128 172 -301 215 -365 92 -35 -67 -10 -132 74 -199 62 -48 139
-78 238 -92 87 -12 147 -5 174 22 16 16 22 17 56 5 21 -7 84 -19 140 -26 105
-14 121 -23 56 -34 -63 -11 -377 -97 -386 -106 -5 -4 -1 -41 8 -81 9 -41 22
-99 29 -129 10 -46 16 -56 35 -58 19 -3 23 0 17 14 -12 31 -46 193 -46 219 0
29 16 34 24 8 21 -78 46 -215 40 -224 -5 -9 6 -10 42 -5 96 14 488 87 493 91
2 3 -12 60 -32 127 -21 67 -35 123 -34 125 5 4 84 -52 121 -86 15 -14 63 -78
106 -141 43 -63 105 -146 139 -185 82 -94 227 -303 257 -372 14 -30 36 -94 51
-142 24 -80 26 -99 26 -281 -1 -134 -9 -276 -27 -455 -14 -143 -26 -310 -26
-372 0 -117 -41 -371 -94 -588 -28 -115 -42 -214 -51 -370 -3 -60 -15 -150
-25 -200 -10 -49 -22 -115 -26 -147 -6 -51 -4 -57 15 -63 12 -3 41 -21 65 -40
l44 -33 5 28 c7 30 48 50 97 47 24 -2 25 0 31 83 6 98 12 116 42 124 32 9 35
8 57 -14 17 -17 20 -33 20 -111 l0 -90 25 3 c14 2 26 6 27 11 0 4 -5 78 -12
165 -14 175 -9 597 10 871 10 138 8 1014 -2 1401 -1 36 4 86 11 111 28 100
200 283 383 407 126 86 197 159 268 277 28 47 53 85 56 85 2 0 31 -15 65 -32
70 -37 171 -49 234 -28 68 22 155 120 155 173 0 25 -60 112 -82 119 -7 3 1 12
20 22 31 16 32 19 32 75 0 51 3 59 24 69 26 11 98 110 121 164 13 31 14 32 86
33 109 1 187 42 300 154 99 100 143 177 143 251 0 86 -68 160 -147 160 -48 0
-205 -52 -266 -87 -161 -94 -225 -257 -157 -398 l28 -57 -18 -34 c-11 -19 -36
-51 -56 -71 l-38 -37 0 49 c0 60 -18 99 -47 103 -53 8 -51 -83 3 -147 23 -27
24 -34 15 -69 -25 -90 -65 -121 -244 -193 -136 -54 -164 -80 -225 -203 -89
-177 -154 -233 -392 -336 -91 -40 -140 -73 -243 -163 -43 -38 -81 -67 -83 -64
-3 3 2 56 12 118 20 135 14 338 -15 492 -21 111 -16 154 24 224 32 54 81 95
202 167 113 68 141 91 155 126 6 14 14 111 18 215 8 192 13 225 34 225 23 0
183 115 242 174 103 103 143 225 114 344 -22 94 -98 184 -166 197 -21 5 -41
-1 -74 -23z m100 -106 c0 -3 -4 -8 -10 -11 -5 -3 -10 -1 -10 4 0 6 5 11 10 11
6 0 10 -2 10 -4z m-50 -117 c-11 -30 -20 -58 -20 -62 0 -5 23 16 51 45 28 29
47 46 42 37 -10 -21 -113 -135 -113 -126 0 3 -11 36 -25 72 -13 36 -21 65 -17
65 5 0 16 -23 26 -50 10 -28 21 -52 25 -54 9 -6 7 72 -2 104 l-8 25 15 -25 15
-25 12 35 c7 19 14 30 16 23 2 -6 -5 -35 -17 -64z m-70 -86 c19 -70 22 -71 85
-29 78 52 80 39 3 -15 -35 -24 -65 -48 -67 -53 -4 -9 -41 106 -41 127 0 19 10
3 20 -30z m76 -126 c-16 -12 -48 -36 -71 -54 l-43 -31 -16 41 c-9 22 -14 43
-11 46 3 2 11 -10 17 -27 12 -31 28 -43 28 -22 0 6 5 10 10 10 6 0 31 13 58
30 55 35 70 38 28 7z m-72 -108 c-3 -5 -12 -9 -20 -9 -17 0 -54 -57 -54 -82 0
-10 -4 -18 -9 -18 -5 0 -1 26 10 58 17 52 22 57 49 58 16 1 27 -3 24 -7z
m1156 -118 c-12 -17 -17 -31 -11 -31 19 0 12 -15 -11 -25 -12 -6 -33 -26 -46
-45 l-24 -35 26 -3 c37 -5 32 -22 -6 -22 -26 0 -40 -9 -67 -42 l-35 -41 42 7
c25 3 42 2 42 -3 0 -5 -20 -13 -45 -17 -32 -4 -52 -14 -66 -33 l-21 -26 21 -3
c27 -4 17 -22 -13 -22 -13 0 -31 -12 -44 -30 -41 -55 -44 -31 -3 27 38 54 39
58 25 84 -17 33 -17 39 -4 39 5 0 13 -12 16 -27 l7 -27 23 29 c16 21 22 37 17
55 -4 20 -3 23 7 13 11 -10 18 -6 36 18 19 26 22 40 18 83 -4 38 -3 47 5 36 6
-8 11 -26 11 -40 l0 -25 21 25 c14 18 18 35 15 58 -3 19 -1 30 5 27 5 -4 9
-14 9 -23 0 -11 10 -4 31 21 37 44 51 42 19 -2z m-2420 -456 l0 -155 -182 2
-183 3 -3 144 c-2 109 1 146 10 153 7 4 91 8 186 8 l172 0 0 -155z m-250 -211
c0 -8 -4 -12 -10 -9 -5 3 -10 13 -10 21 0 8 5 12 10 9 6 -3 10 -13 10 -21z
m-547 -52 c76 -53 77 -53 77 -27 0 15 4 24 10 20 6 -3 10 -17 10 -30 0 -24 36
-59 51 -49 4 2 13 -5 19 -16 13 -24 11 -24 -26 -5 -19 10 -41 13 -63 9 -24 -5
-32 -3 -27 5 4 6 14 11 23 11 11 0 9 5 -8 19 -47 36 -67 42 -104 32 -21 -6
-35 -6 -35 0 0 5 9 9 19 9 35 0 31 17 -9 45 -22 15 -40 32 -40 37 0 11 5 8
103 -60z m2557 -226 c-9 -24 -8 -24 28 -19 20 3 43 10 50 16 15 12 74 18 67 7
-3 -5 -19 -11 -35 -15 -37 -8 -38 -18 -4 -34 15 -6 25 -14 22 -16 -2 -3 -22 4
-44 14 -21 11 -50 18 -64 16 -98 -15 -105 -17 -87 -26 9 -6 17 -15 17 -21 0
-6 -10 -2 -22 10 -13 11 -41 22 -63 25 l-40 4 46 1 c36 2 48 7 58 25 6 12 9
14 7 5 -9 -30 39 -23 52 7 15 32 24 33 12 1z m-1862 -121 c12 -44 24 -93 25
-110 2 -27 -1 -30 -28 -33 l-30 -3 -13 78 c-28 164 -28 155 -1 151 21 -3 27
-14 47 -83z m1887 65 c3 -5 2 -10 -4 -10 -5 0 -13 5 -16 10 -3 6 -2 10 4 10 5
0 13 -4 16 -10z m-2118 -256 c-3 -3 -12 -4 -19 -1 -8 3 -5 6 6 6 11 1 17 -2
13 -5z m-40 -10 c-3 -3 -12 -4 -19 -1 -8 3 -5 6 6 6 11 1 17 -2 13 -5z"/>
<path d="M1460 5040 c0 -6 27 -10 61 -10 37 0 58 4 54 10 -3 6 -31 10 -61 10
-30 0 -54 -4 -54 -10z"/>
<path d="M560 6097 c0 -7 6 -19 13 -26 10 -11 8 -12 -10 -7 -32 10 -105 -25
-132 -63 -13 -18 -25 -50 -28 -71 -5 -34 -1 -43 25 -70 17 -16 39 -30 49 -30
11 0 56 18 102 40 102 49 130 51 166 8 33 -39 29 -87 -11 -129 -56 -58 -108
-61 -168 -9 -34 31 -46 36 -46 22 0 -14 106 -122 113 -115 4 3 0 14 -8 23 -15
16 -12 18 29 22 112 13 175 140 105 214 -39 41 -72 40 -163 -5 -91 -45 -125
-50 -149 -23 -48 53 -2 153 77 168 39 7 89 -15 106 -46 6 -11 15 -20 20 -20
19 0 10 27 -16 51 -14 13 -32 36 -40 52 -15 28 -34 36 -34 14z"/>
<path d="M2037 6018 c-84 -84 -126 -142 -168 -231 -45 -97 -54 -163 -34 -261
18 -93 52 -170 77 -174 27 -5 131 64 188 124 119 126 159 319 104 505 -40 133
-65 139 -167 37z m74 -144 c-11 -37 -18 -70 -16 -72 2 -2 25 12 51 32 26 20
52 36 58 36 13 0 -33 -38 -86 -72 -23 -15 -40 -35 -47 -57 -6 -19 -9 -36 -8
-38 2 -1 27 9 57 23 29 14 61 23 69 22 9 -2 -19 -18 -61 -37 -62 -27 -79 -39
-87 -62 -5 -16 -9 -29 -7 -29 1 0 31 11 66 25 91 36 87 22 -7 -20 -64 -29 -81
-42 -91 -67 l-11 -30 39 6 c22 3 40 2 40 -3 0 -4 -18 -11 -40 -15 -36 -6 -43
-11 -60 -50 -10 -24 -23 -47 -29 -51 -11 -6 -36 43 -26 53 2 3 9 -6 14 -19 9
-23 9 -23 25 14 15 34 15 39 0 62 -9 14 -14 28 -11 31 3 3 11 -4 17 -17 12
-22 13 -22 27 11 12 30 12 39 -2 73 -18 44 -12 64 6 23 16 -35 24 -33 37 10
10 33 8 43 -19 96 -17 33 -28 62 -25 65 2 3 17 -19 32 -49 l27 -53 15 35 c13
31 13 40 -2 80 -27 72 -28 89 -2 37 l24 -49 22 67 c29 86 38 77 11 -11z"/>
<path d="M3503 5755 c-17 -7 -44 -33 -60 -56 -24 -37 -28 -52 -28 -113 1 -57
6 -81 27 -121 24 -47 107 -135 126 -135 14 0 48 42 73 90 20 38 23 60 23 140
1 101 -10 135 -56 176 -31 29 -67 35 -105 19z m37 -67 c0 -37 14 -52 30 -33 7
8 17 15 22 15 5 0 -2 -14 -17 -32 -21 -24 -25 -38 -21 -61 3 -16 6 -39 6 -50
0 -19 4 -17 35 13 47 45 54 34 10 -17 -29 -34 -35 -49 -35 -88 0 -28 -4 -44
-10 -40 -5 3 -10 19 -10 34 0 18 -15 45 -45 80 -25 30 -43 56 -40 59 3 4 23
-14 44 -38 l38 -44 -7 60 c-6 50 -14 67 -43 99 -20 22 -34 42 -31 45 3 3 19
-10 36 -29 l30 -34 -7 42 c-4 27 -3 41 4 41 6 0 11 -10 11 -22z"/>
<path d="M2344 5625 c-63 -65 -125 -185 -150 -290 -24 -103 -16 -243 19 -318
37 -82 175 -207 228 -207 40 0 164 141 219 250 87 172 57 346 -84 493 -67 69
-141 127 -163 127 -8 0 -39 -25 -69 -55z m121 -152 l7 -83 30 21 c42 30 45 17
3 -15 -33 -25 -35 -31 -35 -82 l0 -56 39 31 c60 48 62 36 4 -18 -53 -49 -53
-49 -53 -111 l0 -62 43 34 c42 35 79 58 93 58 4 0 -6 -10 -22 -22 -16 -12 -48
-39 -71 -62 -40 -37 -43 -44 -43 -93 l0 -53 28 16 c25 16 25 15 -5 -15 -26
-25 -33 -40 -33 -71 0 -21 -5 -42 -11 -46 -9 -5 -10 6 -5 42 6 49 6 50 -44 99
-27 27 -50 54 -50 59 0 6 23 -12 50 -39 l50 -49 1 54 c2 64 -1 83 -10 90 -17
13 -73 92 -68 96 3 3 20 -15 39 -40 18 -25 35 -45 38 -46 3 0 7 23 8 51 2 44
-3 57 -39 110 -22 33 -39 63 -36 66 3 2 21 -19 41 -49 l36 -53 0 63 c0 60 -3
67 -46 123 -25 32 -41 59 -36 59 5 0 26 -21 47 -47 l38 -48 -6 99 c-7 119 8
110 18 -11z"/>
<path d="M656 5631 c-4 -6 -15 -11 -25 -11 -29 0 -48 -31 -60 -94 -15 -79 -14
-127 4 -211 32 -154 142 -310 235 -335 57 -15 140 0 186 35 37 28 78 109 89
172 8 52 -10 143 -40 204 -13 25 -51 71 -84 102 -92 84 -285 172 -305 138z
m34 -136 c19 -19 32 -35 29 -35 -3 0 -20 16 -39 35 -19 19 -32 35 -29 35 3 0
20 -16 39 -35z m238 -227 c17 -15 32 -30 32 -34 0 -3 -21 10 -46 31 -41 34
-48 36 -72 26 -24 -10 -25 -10 -9 2 9 8 17 18 17 23 0 5 -26 35 -57 68 -48 50
-44 47 22 -15 44 -41 95 -87 113 -101z m29 40 c-3 -8 -6 -5 -6 6 -1 11 2 17 5
13 3 -3 4 -12 1 -19z"/>
<path d="M1690 5517 c0 -23 47 -117 128 -251 72 -120 96 -177 107 -249 4 -26
10 -47 14 -47 3 0 14 12 24 26 18 24 18 29 2 107 -25 128 -59 190 -154 282
-46 44 -91 96 -101 115 -12 22 -19 29 -20 17z"/>
<path d="M3127 5422 c-69 -46 -122 -165 -133 -296 -15 -170 64 -323 218 -425
90 -61 94 -59 140 69 28 77 36 278 14 378 -27 129 -94 240 -167 278 -35 18
-38 18 -72 -4z m-19 -158 c-4 -3 -12 5 -18 18 -12 22 -12 22 6 6 10 -10 15
-20 12 -24z m104 -56 c-52 -89 -55 -95 -48 -132 4 -20 10 -36 14 -36 4 0 20
22 35 50 15 27 33 52 39 56 13 8 13 9 -36 -73 -28 -47 -35 -69 -31 -90 6 -27
6 -28 -7 -5 -8 12 -37 38 -66 57 -51 35 -75 62 -27 31 14 -9 36 -23 50 -32 14
-9 27 -15 29 -13 2 2 -4 28 -12 57 -13 46 -22 58 -61 83 -25 16 -44 29 -41 29
12 0 84 -40 93 -52 5 -8 10 -9 13 -3 2 6 18 31 34 58 33 52 53 66 22 15z m-72
-238 c25 -16 41 -30 35 -30 -5 0 -30 14 -55 30 -25 16 -40 30 -35 30 6 0 30
-14 55 -30z m90 -19 c-29 -42 -36 -39 -8 3 13 19 24 33 26 31 3 -2 -6 -18 -18
-34z m8 -111 c4 0 8 -24 8 -53 l2 -52 -10 42 c-10 38 -14 42 -54 52 -24 6 -44
14 -44 17 0 6 26 1 75 -13 16 -4 18 -3 8 8 -7 7 -13 22 -12 34 0 16 2 15 11
-7 5 -16 13 -28 16 -28z m52 -34 c0 -2 -8 -10 -17 -17 -16 -13 -17 -12 -4 4
13 16 21 21 21 13z"/>
<path d="M2700 4716 c-55 -44 -114 -115 -143 -171 -44 -87 -42 -216 3 -311 23
-47 101 -124 125 -124 49 0 155 83 195 153 61 107 61 217 0 340 -33 67 -98
156 -115 156 -5 1 -35 -19 -65 -43z m20 -399 c0 -11 4 -15 12 -11 7 4 8 3 4
-5 -8 -13 -26 -5 -26 11 0 7 -10 23 -22 37 l-23 24 27 -19 c15 -10 28 -27 28
-37z"/>
<path d="M3091 4641 c-42 -44 -93 -147 -89 -179 2 -21 9 -28 30 -30 22 -3 34
6 68 49 45 57 80 120 80 143 0 15 -36 46 -53 46 -5 0 -21 -13 -36 -29z"/>
<path d="M3782 4643 c-61 -3 -73 -6 -68 -19 3 -9 6 -20 6 -25 0 -5 17 -10 38
-11 36 -1 36 -1 5 -5 -19 -3 -33 -10 -33 -18 0 -14 68 -13 189 1 42 5 43 6 37
36 -3 17 -6 34 -6 39 0 9 -14 9 -168 2z m155 -39 c-3 -3 -12 -4 -19 -1 -8 3
-5 6 6 6 11 1 17 -2 13 -5z m-57 -8 c0 -8 -71 -12 -76 -4 -3 4 13 8 35 8 23 0
41 -2 41 -4z"/>
<path d="M4143 4620 c-34 -10 -67 -21 -74 -25 -11 -8 -8 -88 8 -174 l6 -34 59
7 c33 3 64 8 69 12 11 6 12 235 2 233 -5 -1 -36 -9 -70 -19z"/>
<path d="M375 4541 c-22 -10 -53 -33 -70 -50 -26 -28 -30 -39 -30 -89 1 -77
39 -157 111 -232 105 -111 240 -149 418 -120 93 15 165 39 175 58 34 63 -165
330 -294 395 -116 58 -235 73 -310 38z m212 -242 c12 -14 12 -17 -1 -22 -9 -4
-15 -3 -15 1 3 21 -2 32 -13 26 -7 -4 -8 -3 -4 4 4 7 -5 29 -19 49 -14 21 -25
42 -25 47 0 6 14 -12 31 -40 17 -27 38 -56 46 -65z m-119 60 c10 -13 10 -18 0
-22 -8 -3 -14 5 -14 20 -1 13 -1 23 0 21 1 -2 7 -10 14 -19z m162 -59 c18 -28
30 -53 27 -56 -3 -3 -13 9 -23 28 -9 18 -24 43 -32 56 -8 12 -12 22 -9 22 3 0
19 -23 37 -50z m89 -69 c9 -15 7 -20 -10 -24 -16 -4 -18 -3 -9 8 7 8 9 19 5
25 -3 5 -4 10 -1 10 3 0 10 -9 15 -19z m55 -18 c9 -18 14 -33 12 -33 -6 0 -36
55 -36 66 0 11 5 3 24 -33z"/>
<path d="M3878 4553 c-34 -3 -48 -8 -48 -19 0 -11 15 -14 63 -14 35 0 66 3 70
6 10 11 -5 34 -22 32 -9 -1 -37 -3 -63 -5z"/>
<path d="M3740 4525 c0 -11 11 -15 40 -15 29 0 40 4 40 15 0 11 -11 15 -40 15
-29 0 -40 -4 -40 -15z"/>
<path d="M3840 4500 c0 -5 17 -11 38 -12 36 -1 36 -1 5 -5 -37 -5 -45 -23 -10
-23 58 0 97 13 97 31 0 17 -8 19 -65 19 -37 0 -65 -4 -65 -10z"/>
<path d="M3760 4490 c0 -5 14 -7 33 -3 45 8 47 13 4 13 -20 0 -37 -4 -37 -10z"/>
<path d="M1501 4159 c-24 -5 -46 -11 -48 -13 -13 -12 13 -26 50 -27 30 -1 12
-7 -63 -20 -58 -10 -106 -18 -107 -18 -2 -1 -3 -10 -3 -20 0 -12 8 -21 23 -24
19 -4 18 -4 -5 -6 -21 -1 -28 4 -28 17 0 10 -5 23 -12 30 -9 9 -7 12 9 12 12
0 25 5 28 10 9 15 -21 23 -60 16 -37 -7 -37 -8 -18 -78 2 -10 0 -18 -4 -18 -5
0 -13 19 -19 42 -6 29 -15 44 -28 46 -29 6 -37 -10 -28 -60 l9 -45 -30 -1
c-36 -1 -50 -13 -41 -36 5 -14 15 -16 43 -12 20 3 57 8 84 12 41 5 47 9 47 29
0 13 -6 26 -12 28 -8 3 -6 6 5 6 12 1 17 -7 17 -25 0 -26 2 -26 45 -21 56 6
61 10 47 42 -9 19 -9 25 1 25 6 0 13 -12 13 -26 2 -34 5 -36 53 -28 41 7 42 8
36 38 -5 23 -4 27 4 16 6 -8 11 -23 11 -34 0 -15 5 -17 31 -12 17 3 42 6 55 6
20 0 24 5 24 30 0 26 -3 30 -29 30 -25 0 -28 3 -24 21 4 12 0 25 -8 30 -10 6
-10 9 -1 9 6 0 12 9 12 20 0 22 -9 23 -79 9z"/>
<path d="M1378 4133 c-10 -2 -18 -11 -18 -20 0 -13 8 -15 41 -10 46 6 54 11
44 26 -6 11 -35 13 -67 4z"/>
<path d="M3953 4084 c-14 -6 29 -108 60 -141 27 -30 68 -29 95 0 41 43 20 106
-44 133 -32 14 -87 17 -111 8z"/>
<path d="M915 3936 c-47 -21 -69 -50 -55 -75 21 -40 69 -21 100 38 26 53 14
63 -45 37z"/>
<path d="M1378 3943 c-19 -5 -22 -20 -12 -47 4 -12 20 -16 54 -16 55 0 60 4
53 43 -5 24 -10 27 -42 26 -20 -1 -44 -3 -53 -6z"/>
<path d="M1864 3870 c-32 -13 -54 -50 -54 -88 0 -52 55 -156 111 -211 58 -57
180 -125 208 -116 54 17 74 163 33 241 -53 102 -228 204 -298 174z m117 -107
l23 -36 12 34 c12 33 12 33 7 -17 -3 -29 -1 -59 5 -70 10 -17 11 -17 12 -1 0
9 4 17 10 17 6 0 6 -8 -1 -23 -7 -16 -7 -31 1 -52 l12 -30 14 25 c9 14 12 17
8 5 -10 -27 -10 -74 0 -105 5 -17 5 -22 -2 -15 -5 6 -15 27 -21 47 -8 25 -21
40 -39 47 -21 9 -22 10 -4 7 12 -2 22 0 22 4 0 21 -14 40 -29 40 -9 0 -23 5
-31 10 -11 8 -8 9 13 4 15 -3 27 -2 27 3 0 6 -16 40 -35 76 -38 72 -41 90 -4
30z"/>
<path d="M619 3847 c-46 -35 -25 -86 27 -67 42 16 87 62 72 72 -19 12 -81 9
-99 -5z"/>
<path d="M3276 3838 c-28 -40 -14 -160 22 -202 10 -10 42 -30 72 -43 60 -27
70 -37 70 -71 0 -21 3 -22 36 -16 35 6 35 6 32 -22 -2 -23 -9 -30 -30 -32 -25
-3 -27 -6 -21 -35 3 -18 7 -34 9 -36 11 -13 57 25 96 81 72 100 81 123 76 190
-5 72 -33 106 -94 114 -21 3 -54 7 -71 10 -19 3 -53 22 -79 44 -53 47 -94 53
-118 18z"/>
<path d="M1324 3681 c-67 -31 -128 -138 -150 -264 -13 -73 -43 -137 -64 -137
-17 0 -40 -58 -40 -100 0 -49 -18 -94 -53 -136 -75 -88 4 -203 150 -220 l49
-6 23 -87 c12 -47 34 -114 48 -149 l25 -62 -45 -98 c-25 -53 -52 -119 -60
-147 -35 -111 -137 -577 -137 -623 0 -26 33 -47 111 -69 51 -14 102 -18 249
-18 178 0 267 10 327 38 30 13 30 45 -1 257 -31 205 -44 271 -98 472 -42 157
-43 159 -68 154 -14 -3 -47 -8 -75 -11 -43 -4 -40 -3 20 11 39 8 102 29 140
46 68 30 74 31 210 30 152 -1 258 12 276 34 18 22 6 26 -46 13 -64 -16 -325
-5 -421 18 l-71 18 -6 130 c-7 142 -26 248 -55 304 -20 38 -93 88 -143 98 -16
3 -29 7 -29 8 0 1 7 19 15 38 8 20 15 55 15 77 0 35 -4 42 -27 53 -45 19 -52
36 -27 61 11 12 20 13 34 6 27 -14 27 -14 48 33 13 28 36 56 65 76 81 59 88
118 17 153 -48 24 -152 24 -206 -1z m239 -1068 c-18 -2 -48 -2 -65 0 -18 2 -4
4 32 4 36 0 50 -2 33 -4z"/>
<path d="M2515 3298 c18 -103 50 -400 43 -404 -4 -3 -8 -21 -8 -39 0 -42 18
-55 120 -90 54 -18 76 -22 81 -13 5 8 15 7 35 -7 25 -16 26 -19 11 -30 -9 -7
-17 -15 -17 -18 0 -10 145 -66 290 -110 252 -78 316 -83 364 -27 21 26 106
225 106 250 0 6 4 10 10 10 9 0 -45 -161 -77 -228 -27 -57 -67 -82 -132 -82
-32 0 -81 7 -110 16 -29 8 -55 13 -58 10 -12 -12 -73 -265 -87 -362 -20 -129
-20 -193 -3 -200 10 -3 13 -77 12 -347 0 -188 4 -399 8 -469 l9 -127 24 15
c16 11 40 15 73 12 l49 -3 6 115 c24 449 46 720 58 720 4 0 6 -10 3 -22 -3
-13 -9 -89 -14 -169 -9 -126 -7 -163 10 -275 11 -71 29 -190 40 -264 11 -74
24 -184 29 -245 11 -143 28 -286 34 -293 3 -2 22 -5 42 -6 47 -1 50 8 59 184
7 120 6 132 -11 151 -17 19 -19 36 -16 203 8 442 8 444 40 571 17 66 34 137
37 157 4 20 13 39 21 42 8 3 14 16 14 29 0 14 11 75 25 136 60 266 111 697
103 872 -7 144 -33 201 -120 265 -81 60 -94 62 -158 24 -53 -31 -61 -31 -73 5
-2 5 -26 -6 -53 -25 -65 -46 -97 -112 -126 -260 l-23 -115 -35 -2 c-47 -2
-189 18 -195 27 -3 5 -13 79 -22 167 -9 87 -19 162 -23 166 -8 9 -362 117
-385 117 -12 0 -15 -7 -10 -32z m79 -138 c8 -69 18 -153 22 -187 l7 -62 127
-41 c70 -22 145 -44 166 -48 34 -7 36 -9 17 -16 -23 -7 -299 76 -319 98 -6 6
-19 81 -28 166 -10 85 -20 173 -23 195 -4 28 -2 37 5 30 6 -5 17 -66 26 -135z
m750 -315 l-37 -167 -36 7 c-20 4 -67 13 -106 20 -58 10 -65 14 -43 20 14 3
34 2 45 -3 10 -6 43 -13 73 -17 l56 -7 38 162 c21 89 40 159 43 156 3 -2 -12
-80 -33 -171z m-280 -16 c45 -12 86 -26 91 -31 7 -7 2 -9 -15 -5 -14 3 -59 11
-102 17 -62 10 -77 16 -81 32 -4 15 -2 18 11 13 9 -3 52 -15 96 -26z m266
-830 c63 -10 133 -19 155 -19 30 0 36 -3 27 -12 -16 -16 -15 -45 1 -52 6 -3
-42 -4 -108 -2 -113 3 -293 35 -252 44 13 3 17 11 15 30 -2 15 -7 31 -13 35
-5 5 6 6 25 2 19 -3 87 -15 150 -26z"/>
<path d="M1756 3018 c-3 -18 -14 -98 -26 -176 -12 -79 -19 -147 -16 -150 3 -3
97 -7 209 -10 l203 -5 12 144 c7 79 12 163 12 187 l0 42 -195 0 -194 0 -5 -32z
m104 -8 c0 -5 -5 -10 -11 -10 -5 0 -7 5 -4 10 3 6 8 10 11 10 2 0 4 -4 4 -10z
m215 0 c3 -5 -3 -10 -15 -10 -12 0 -18 5 -15 10 3 6 10 10 15 10 5 0 12 -4 15
-10z m-265 -30 c0 -5 -2 -10 -4 -10 -3 0 -8 5 -11 10 -3 6 -1 10 4 10 6 0 11
-4 11 -10z m260 0 c0 -5 -4 -10 -10 -10 -5 0 -10 5 -10 10 0 6 5 10 10 10 6 0
10 -4 10 -10z m-260 -30 c0 -5 -4 -10 -10 -10 -5 0 -10 5 -10 10 0 6 5 10 10
10 6 0 10 -4 10 -10z m80 0 c0 -5 -5 -10 -11 -10 -5 0 -7 5 -4 10 3 6 8 10 11
10 2 0 4 -4 4 -10z m175 0 c3 -5 -1 -10 -10 -10 -9 0 -13 5 -10 10 3 6 8 10
10 10 2 0 7 -4 10 -10z m-135 -24 c0 -3 -4 -8 -10 -11 -5 -3 -10 -1 -10 4 0 6
5 11 10 11 6 0 10 -2 10 -4z m-130 -36 c0 -5 -5 -10 -11 -10 -5 0 -7 5 -4 10
3 6 8 10 11 10 2 0 4 -4 4 -10z m260 0 c0 -5 -4 -10 -10 -10 -5 0 -10 5 -10
10 0 6 5 10 10 10 6 0 10 -4 10 -10z m0 -34 c0 -11 -19 -15 -25 -6 -3 5 1 10
9 10 9 0 16 -2 16 -4z m-230 -36 c0 -5 -4 -10 -10 -10 -5 0 -10 5 -10 10 0 6
5 10 10 10 6 0 10 -4 10 -10z m225 0 c-3 -5 -10 -10 -16 -10 -5 0 -9 5 -9 10
0 6 7 10 16 10 8 0 12 -4 9 -10z m-235 -30 c0 -5 -4 -10 -10 -10 -5 0 -10 5
-10 10 0 6 5 10 10 10 6 0 10 -4 10 -10z m50 6 c0 -3 -4 -8 -10 -11 -5 -3 -10
-1 -10 4 0 6 5 11 10 11 6 0 10 -2 10 -4z m40 -6 c0 -5 -4 -10 -10 -10 -5 0
-10 5 -10 10 0 6 5 10 10 10 6 0 10 -4 10 -10z m40 0 c0 -5 -2 -10 -4 -10 -3
0 -8 5 -11 10 -3 6 -1 10 4 10 6 0 11 -4 11 -10z m45 0 c3 -5 1 -10 -4 -10 -6
0 -11 5 -11 10 0 6 2 10 4 10 3 0 8 -4 11 -10z m50 0 c3 -5 -1 -10 -9 -10 -9
0 -16 5 -16 10 0 6 4 10 9 10 6 0 13 -4 16 -10z m-178 -36 c-3 -3 -12 -4 -19
-1 -8 3 -5 6 6 6 11 1 17 -2 13 -5z m83 2 c0 -11 -19 -15 -25 -6 -3 5 1 10 9
10 9 0 16 -2 16 -4z m90 0 c0 -11 -19 -15 -25 -6 -3 5 1 10 9 10 9 0 16 -2 16
-4z m40 -6 c0 -5 -4 -10 -10 -10 -5 0 -10 5 -10 10 0 6 5 10 10 10 6 0 10 -4
10 -10z"/>
<path d="M464 1371 c-2 -2 -4 -13 -4 -23 0 -15 8 -18 55 -18 53 0 56 -2 70
-32 8 -18 78 -274 156 -568 77 -294 145 -541 151 -547 15 -19 46 -16 57 5 5
10 73 261 151 557 78 297 148 550 156 562 11 17 25 23 66 25 45 3 53 6 53 23
0 19 -7 20 -175 20 -168 0 -175 -1 -175 -20 0 -18 8 -20 72 -23 68 -3 73 -4
79 -28 4 -16 -38 -199 -122 -529 -71 -278 -131 -505 -134 -505 -10 0 -262
1006 -258 1031 3 22 8 24 73 29 67 5 72 8 67 38 -2 7 -330 10 -338 3z"/>
<path d="M3552 1368 c-5 -8 -11 -95 -13 -203 -4 -185 -3 -190 16 -190 19 0 20
8 25 156 4 136 8 160 24 178 18 20 28 21 263 21 199 0 245 -3 249 -14 3 -8
-26 -65 -64 -127 -111 -181 -508 -861 -533 -911 -21 -44 -25 -46 -68 -50 -56
-6 -79 5 -92 40 -6 16 -9 163 -8 380 1 214 -2 357 -8 363 -5 5 -52 8 -104 7
-76 -2 -94 -6 -94 -18 0 -11 16 -16 62 -20 34 -3 68 -11 75 -18 10 -10 14 -71
16 -246 4 -339 -17 -420 -129 -480 -88 -49 -213 -32 -262 35 -35 48 -40 98
-43 414 -1 171 -2 316 -3 323 -2 20 -196 12 -196 -8 0 -11 16 -16 62 -20 34
-3 68 -11 75 -18 10 -10 14 -88 18 -325 5 -303 6 -313 29 -360 29 -59 78 -93
152 -107 126 -23 246 35 288 140 8 21 10 15 11 -35 0 -33 4 -66 9 -74 7 -11
86 -14 432 -15 233 -1 430 0 437 2 9 3 12 57 12 224 l0 219 -22 -3 c-23 -3
-23 -6 -28 -185 -4 -130 -9 -186 -18 -195 -10 -10 -75 -14 -265 -16 -306 -4
-302 -5 -256 83 39 73 464 794 543 919 57 92 68 129 40 140 -9 3 -152 6 -319
6 -230 0 -305 -3 -313 -12z"/>
<path d="M1420 1265 c-13 -15 -16 -77 -5 -94 9 -15 68 -14 83 1 7 7 12 28 12
48 0 20 -5 41 -12 48 -17 17 -63 15 -78 -3z"/>
<path d="M2367 1223 c-4 -3 -7 -43 -7 -88 0 -103 -11 -120 -77 -120 -41 0 -48
-3 -48 -20 0 -18 7 -20 55 -20 l55 0 6 -325 c7 -358 12 -395 64 -447 29 -29
40 -33 84 -33 70 0 104 20 132 77 21 43 24 62 24 178 0 111 -2 130 -16 133
-14 3 -17 -14 -21 -131 -5 -148 -19 -190 -71 -215 -62 -30 -117 11 -136 99
-16 73 -15 641 1 657 7 7 44 12 95 12 78 0 83 1 83 21 0 21 -3 22 -79 15 -107
-9 -111 -4 -111 120 0 72 -3 94 -13 94 -8 0 -17 -3 -20 -7z"/>
<path d="M1919 1033 c-48 -8 -131 -66 -165 -116 -123 -180 -120 -486 6 -646
92 -116 260 -137 369 -45 49 41 82 106 88 174 5 55 4 60 -14 60 -17 0 -22 -9
-27 -52 -15 -113 -71 -180 -167 -200 -73 -15 -128 1 -186 55 -85 78 -118 187
-110 357 9 175 56 286 149 347 35 24 52 28 108 28 75 0 119 -22 159 -80 29
-43 50 -140 33 -157 -9 -9 -15 -9 -24 0 -36 36 -80 -15 -56 -66 10 -21 22 -28
49 -30 56 -5 79 30 79 120 0 80 -18 129 -63 176 -57 60 -147 89 -228 75z"/>
<path d="M1283 1003 c-8 -22 1 -25 70 -27 104 -2 97 23 97 -371 0 -335 0 -342
-21 -361 -16 -14 -34 -18 -74 -17 -35 2 -57 -2 -64 -11 -9 -11 -9 -16 1 -22
18 -11 339 -7 351 5 15 15 -30 33 -64 26 -20 -5 -38 -1 -54 9 l-25 16 0 375
c0 288 -3 376 -12 382 -7 4 -55 8 -106 9 -73 1 -95 -1 -99 -13z"/>
<path d="M3124 799 c4 -85 10 -162 12 -171 4 -14 16 -18 54 -18 l48 0 6 118
c4 64 8 138 10 165 l3 47 -53 0 c-29 0 -60 3 -70 7 -15 6 -16 -5 -10 -148z"/>
<path d="M2036 879 c-12 -99 -53 -249 -91 -324 -34 -70 -74 -120 -130 -163
l-30 -23 50 5 c101 12 251 25 278 26 23 0 27 4 27 28 0 40 26 72 59 72 36 0
61 -28 61 -68 0 -29 3 -32 30 -32 l30 0 0 270 0 270 -55 0 -56 0 18 -32 c23
-43 25 -192 3 -232 -27 -52 -94 -70 -149 -41 -34 17 -41 33 -41 90 0 35 5 48
26 64 15 12 35 21 45 21 23 0 23 1 4 48 -16 36 -52 82 -65 82 -4 0 -11 -28
-14 -61z"/>
<path d="M2440 666 l0 -273 66 -7 c37 -4 68 -6 69 -4 2 2 4 46 6 98 2 73 -3
110 -18 160 -11 36 -28 118 -38 183 l-18 117 -33 0 -34 0 0 -274z"/>
<path d="M3128 489 c-18 -31 -58 -45 -150 -55 -71 -8 -76 -12 -71 -51 6 -36
12 -38 205 -49 l117 -6 11 42 c7 26 8 60 3 92 l-8 50 -46 3 c-40 2 -47 0 -61
-26z"/>
<path d="M1534 446 c-3 -7 -4 -33 -2 -57 l3 -44 60 4 c33 1 62 4 63 6 2 2 1
17 -3 34 -10 48 -107 94 -121 57z"/>
<path d="M1225 432 c-3 -7 -5 -34 -5 -58 l0 -44 73 0 c97 0 117 7 117 36 0 20
-5 24 -29 24 -16 0 -42 11 -58 24 -34 28 -90 39 -98 18z"/>
<path d="M3413 414 c-13 -20 -23 -49 -23 -65 l0 -30 58 3 57 3 3 63 3 62 -38
0 c-32 -1 -41 -6 -60 -36z"/>
<path d="M2700 391 c0 -30 1 -31 45 -31 25 0 45 4 45 10 0 5 -6 7 -14 4 -7 -3
-27 7 -45 21 l-31 27 0 -31z"/>
</g>
</svg>
